<?xml version="1.0" standalone="no"?>
<!DOCTYPE svg PUBLIC "-//W3C//DTD SVG 20010904//EN"
 "http://www.w3.org/TR/2001/REC-SVG-20010904/DTD/svg10.dtd">
<svg version="1.0" xmlns="http://www.w3.org/2000/svg"
 width="512.000000pt" height="512.000000pt" viewBox="0 0 512.000000 512.000000"
 preserveAspectRatio="xMidYMid meet">

<g transform="translate(0.000000,512.000000) scale(0.100000,-0.100000)"
fill="#000000" stroke="none">
<path d="M2295 4365 c543 -38 880 -120 1126 -276 76 -49 79 -51 79 -45 0 13
-132 101 -210 141 -250 126 -541 184 -950 190 l-245 4 200 -14z"/>
<path d="M1520 4341 c-27 -4 44 -10 180 -14 386 -13 640 -27 785 -43 398 -43
682 -120 892 -244 66 -39 88 -48 95 -38 12 19 -51 69 -162 127 -222 116 -496
181 -889 211 -143 11 -825 11 -901 1z m1005 -21 c105 -10 229 -30 223 -36 -2
-1 -104 8 -228 21 -125 13 -198 23 -165 24 33 1 110 -4 170 -9z"/>
<path d="M1102 4323 c-20 -18 -20 -32 -26 -1728 -6 -1458 -5 -1707 7 -1691 8
11 19 16 24 13 6 -4 13 -1 16 6 3 8 1 283 -3 613 -10 692 -13 2697 -4 2742 4
18 14 32 25 35 10 3 19 10 19 16 0 17 -36 13 -58 -6z"/>
<path d="M2460 3955 c248 -37 373 -74 528 -155 80 -42 92 -46 72 -24 -42 44
-233 131 -350 158 -125 30 -250 46 -340 45 -57 -1 -46 -4 90 -24z"/>
<path d="M1602 3943 c-20 -18 -20 -32 -26 -1343 -4 -868 -3 -1320 3 -1310 6 8
18 15 28 15 21 0 20 -124 8 1460 -4 589 -5 1091 -1 1116 5 36 12 48 27 52 12
3 18 10 14 16 -9 16 -30 13 -53 -6z"/>
<path d="M1890 3952 c8 -5 94 -14 190 -21 433 -30 699 -89 899 -198 54 -29 86
-42 89 -35 2 7 9 9 14 6 7 -5 8 -2 3 5 -14 24 -144 101 -221 132 -101 41 -240
75 -378 95 -124 17 -621 31 -596 16z"/>
<path d="M3911 3260 c0 -8 8 -62 18 -120 51 -283 54 -642 8 -910 -113 -645
-466 -1108 -968 -1268 -296 -95 -623 -125 -1356 -124 -273 0 -493 -4 -493 -9
0 -31 46 -33 610 -34 477 0 589 3 720 18 307 35 523 84 685 157 225 101 460
318 601 556 247 416 336 1018 229 1549 -23 115 -53 217 -54 185z"/>
<path d="M3374 3188 c38 -177 50 -314 50 -568 1 -273 -7 -370 -45 -545 -27
-121 -61 -219 -110 -318 -146 -293 -372 -437 -777 -497 -160 -23 -545 -44
-732 -39 -126 4 -131 3 -128 -16 3 -18 14 -21 118 -28 217 -16 710 16 897 59
322 72 528 224 657 482 112 223 161 483 161 847 -1 242 -15 375 -56 540 -20
77 -47 143 -35 83z"/>
<path d="M4071 2851 c-1 -83 -10 -86 -27 -8 -10 45 -12 22 -13 -163 -1 -279
-22 -452 -82 -680 -85 -323 -243 -619 -440 -824 -215 -225 -457 -330 -884
-382 -98 -12 -263 -19 -545 -24 l-405 -7 425 2 c457 3 553 11 779 61 292 65
467 159 644 344 113 117 188 227 282 412 50 97 74 135 83 129 9 -6 8 -21 -8
-67 -63 -182 -206 -411 -345 -550 -248 -250 -552 -353 -1133 -385 -202 -11
-261 -10 -892 17 -428 18 -430 18 -430 44 0 15 7 20 28 21 26 1 26 1 -6 10
-29 9 -36 7 -52 -13 -24 -29 -24 -35 -1 -47 25 -14 83 -18 526 -37 437 -19
891 -15 1085 10 539 71 823 228 1066 591 166 249 290 583 351 942 14 86 18
160 17 363 0 156 -5 267 -11 285 -10 27 -11 21 -12 -44z"/>
<path d="M3531 2763 c-1 -35 -5 -63 -10 -63 -4 0 -13 24 -18 53 -9 43 -11 19
-12 -143 -2 -384 -63 -694 -181 -931 -136 -272 -290 -398 -571 -468 -147 -37
-274 -51 -555 -60 l-229 -8 175 -1 c382 -4 665 46 865 151 124 66 242 205 337
395 37 76 43 83 51 64 11 -25 -5 -75 -61 -187 -129 -260 -316 -384 -682 -450
-129 -23 -509 -31 -798 -16 -260 14 -272 16 -272 42 0 15 8 19 38 20 l37 1
-38 9 c-34 8 -41 6 -58 -13 -23 -29 -23 -35 0 -48 56 -29 797 -46 981 -22 365
48 581 147 719 329 64 84 159 277 199 403 32 103 73 277 94 405 16 97 16 525
0 570 -9 27 -10 24 -11 -32z"/>
<path d="M1540 2437 c0 -7 -7 -168 -15 -357 -17 -399 -23 -885 -12 -896 4 -4
12 -3 17 2 11 11 28 1264 17 1264 -4 0 -7 -6 -7 -13z"/>
<path d="M1036 2065 c-22 -548 -34 -1224 -21 -1245 25 -40 29 37 33 692 3 376
3 692 0 703 -2 11 -8 -56 -12 -150z"/>
<path d="M1743 1153 c37 -2 97 -2 135 0 37 2 6 3 -68 3 -74 0 -105 -1 -67 -3z"/>
<path d="M1153 783 c9 -2 25 -2 35 0 9 3 1 5 -18 5 -19 0 -27 -2 -17 -5z"/>
<path d="M1393 773 c32 -2 81 -2 110 0 29 2 3 3 -58 3 -60 0 -84 -1 -52 -3z"/>
</g>
</svg>
